<?xml version="1.0" encoding="UTF-8"?>
<svg version="1.1" xmlns="http://www.w3.org/2000/svg" width="500" height="500">
<path d="M0 0 C165 0 330 0 500 0 C500 165 500 330 500 500 C335 500 170 500 0 500 C0 335 0 170 0 0 Z " fill="#AB8262" transform="translate(0,0)"/>
<path d="M0 0 C1.15136948 -0.00630432 2.30273895 -0.01260864 3.48899841 -0.019104 C4.73794388 -0.01505554 5.98688934 -0.01100708 7.27368164 -0.00683594 C8.55110733 -0.00874939 9.82853302 -0.01066284 11.14466858 -0.01263428 C13.85081427 -0.01399756 16.55660077 -0.01129026 19.26269531 -0.00195312 C22.73083241 0.00943015 26.19865957 0.00288908 29.66678524 -0.00909805 C32.97326181 -0.01806632 36.27970103 -0.011785 39.58618164 -0.00683594 C40.83310287 -0.0108844 42.08002411 -0.01493286 43.36473083 -0.019104 C45.09651329 -0.00964752 45.09651329 -0.00964752 46.86328125 0 C48.38978554 0.00238678 48.38978554 0.00238678 49.9471283 0.00482178 C52.49633789 0.25878906 52.49633789 0.25878906 55.49633789 2.25878906 C55.86865234 4.10644531 55.86865234 4.10644531 55.85961914 6.32128906 C55.85897461 7.11792969 55.85833008 7.91457031 55.85766602 8.73535156 C55.84155273 9.56808594 55.82543945 10.40082031 55.80883789 11.25878906 C55.81206055 12.09152344 55.8152832 12.92425781 55.81860352 13.78222656 C55.76334044 19.99178651 55.76334044 19.99178651 53.49633789 22.25878906 C51.19282943 22.53566678 48.87620247 22.70888851 46.55883789 22.82128906 C41.43748224 23.05723485 41.43748224 23.05723485 36.49633789 24.25878906 C36.29811215 29.15153402 36.15321164 34.04193075 36.05688477 38.93774414 C36.01672625 40.60156976 35.96218325 42.26511428 35.89282227 43.92797852 C35.07985087 53.25109557 35.07985087 53.25109557 38.31274414 61.48779297 C40.36801293 62.77233596 42.16239929 63.62892824 44.49633789 64.25878906 C44.43383789 66.50878906 44.43383789 66.50878906 43.49633789 69.25878906 C42.3384375 69.72148193 41.18053711 70.1841748 39.98754883 70.66088867 C38.01033517 71.62883738 38.01033517 71.62883738 36.49633789 73.25878906 C35.43466933 77.33993813 35.61482776 81.3803362 35.69946289 85.57519531 C35.6942865 86.78320297 35.68911011 87.99121063 35.68377686 89.23582458 C35.67186054 93.0984728 35.70647691 96.95885577 35.74633789 100.82128906 C35.76505722 104.68683096 35.77385888 108.5518846 35.76605225 112.41746521 C35.76336213 114.82364468 35.77726322 117.22990974 35.80914307 119.63587952 C35.81334259 121.26788551 35.81334259 121.26788551 35.81762695 122.93286133 C35.82763733 123.89120377 35.83764771 124.8495462 35.84796143 125.83692932 C35.49633789 128.25878906 35.49633789 128.25878906 34.09883118 130.06739807 C32.06184711 131.58181594 30.85882692 131.64546337 28.33618164 131.65722656 C27.14605469 131.66302734 27.14605469 131.66302734 25.93188477 131.66894531 C24.69535156 131.65154297 24.69535156 131.65154297 23.43383789 131.63378906 C22.19150391 131.65119141 22.19150391 131.65119141 20.92407227 131.66894531 C20.13194336 131.66507813 19.33981445 131.66121094 18.52368164 131.65722656 C17.4368811 131.65215088 17.4368811 131.65215088 16.328125 131.64697266 C14.49633789 131.25878906 14.49633789 131.25878906 12.49633789 128.25878906 C12.271698 125.84365845 12.271698 125.84365845 12.30444336 122.94873047 C12.31337112 121.32156601 12.31337112 121.32156601 12.32247925 119.66152954 C12.33602448 118.48964081 12.3495697 117.31775208 12.36352539 116.11035156 C12.36271881 113.63639199 12.36005706 111.16243245 12.35571289 108.68847656 C12.35767958 104.78164475 12.37142564 100.87630621 12.41723633 96.96972656 C12.45623329 93.20319109 12.44517119 89.439481 12.42602539 85.67285156 C12.451716 84.50501129 12.47740662 83.33717102 12.50387573 82.13394165 C12.60858362 76.20363149 12.60858362 76.20363149 9.65313721 71.3805542 C7.63915025 70.10969285 5.71736114 69.10890581 3.49633789 68.25878906 C3.62133789 66.00878906 3.62133789 66.00878906 4.49633789 63.25878906 C9.57741897 59.25878906 9.57741897 59.25878906 12.49633789 59.25878906 C12.16633789 48.03878906 11.83633789 36.81878906 11.49633789 25.25878906 C6.62705016 22.8241452 2.7585524 22.84360769 -2.60522461 22.60253906 C-5.50366211 22.25878906 -5.50366211 22.25878906 -7.50366211 20.25878906 C-7.76245117 18.41113281 -7.76245117 18.41113281 -7.76928711 16.19628906 C-7.77186523 15.39964844 -7.77444336 14.60300781 -7.77709961 13.78222656 C-7.76936523 12.94949219 -7.76163086 12.11675781 -7.75366211 11.25878906 C-7.76139648 10.42605469 -7.76913086 9.59332031 -7.77709961 8.73535156 C-7.77452148 7.93871094 -7.77194336 7.14207031 -7.76928711 6.32128906 C-7.76703125 5.59039062 -7.76477539 4.85949219 -7.76245117 4.10644531 C-7.12325811 -0.45715195 -3.77450056 0.00590627 0 0 Z " fill="#FBF5E6" transform="translate(126.503662109375,183.7412109375)"/>
<path d="M0 0 C0.72453369 -0.00338379 1.44906738 -0.00676758 2.19555664 -0.01025391 C3.38375 -0.01605469 3.38375 -0.01605469 4.59594727 -0.02197266 C5.42416992 -0.01037109 6.25239258 0.00123047 7.10571289 0.01318359 C7.93006836 0.00158203 8.75442383 -0.01001953 9.60375977 -0.02197266 C10.79388672 -0.01617187 10.79388672 -0.01617187 12.00805664 -0.01025391 C12.73371826 -0.00687012 13.45937988 -0.00348633 14.20703125 0 C16.80341856 0.51391209 17.55896822 1.29617956 19.16821289 3.38818359 C19.52897644 5.87492371 19.52897644 5.87492371 19.50878906 8.86938477 C19.50856247 9.99032028 19.50833588 11.1112558 19.50810242 12.26615906 C19.49261856 13.47560684 19.4771347 14.68505463 19.46118164 15.93115234 C19.4569368 17.16988602 19.45269196 18.40861969 19.44831848 19.68489075 C19.43436022 22.9746736 19.40741503 26.26401563 19.37420654 29.5536499 C19.34349222 32.91185106 19.32981028 36.27011678 19.31469727 39.62841797 C19.28158648 46.21517933 19.23135546 52.8016454 19.16821289 59.38818359 C20.31290039 59.82130859 20.31290039 59.82130859 21.48071289 60.26318359 C24.16821289 61.38818359 24.16821289 61.38818359 27.16821289 63.38818359 C27.35571289 66.01318359 27.35571289 66.01318359 27.16821289 68.38818359 C24.85821289 69.70818359 22.54821289 71.02818359 20.16821289 72.38818359 C20.11884406 77.19366956 20.08250846 81.99900853 20.05834961 86.8046875 C20.04828035 88.44013032 20.03462408 90.07555508 20.01733398 91.7109375 C19.99312584 94.05912729 19.98173932 96.40707947 19.97290039 98.75537109 C19.96257782 99.48875702 19.95225525 100.22214294 19.94161987 100.97775269 C19.94121921 102.78281057 20.04608534 104.58726189 20.16821289 106.38818359 C22.91451964 109.13449035 24.57594144 108.68336322 28.41821289 108.76708984 C29.66602539 108.80125 30.91383789 108.83541016 32.19946289 108.87060547 C33.50915039 108.89703125 34.81883789 108.92345703 36.16821289 108.95068359 C38.75164302 109.01043813 41.33498796 109.07404001 43.91821289 109.14208984 C45.64297852 109.17798218 45.64297852 109.17798218 47.40258789 109.21459961 C50.16821289 109.38818359 50.16821289 109.38818359 52.16821289 110.38818359 C52.22613133 113.51310611 52.26178035 116.63789125 52.29321289 119.76318359 C52.3099707 120.65263672 52.32672852 121.54208984 52.34399414 122.45849609 C52.35043945 123.30927734 52.35688477 124.16005859 52.36352539 125.03662109 C52.37399902 125.82214355 52.38447266 126.60766602 52.39526367 127.41699219 C52.16821289 129.38818359 52.16821289 129.38818359 50.16821289 131.38818359 C48.00500488 131.63542175 48.00500488 131.63542175 45.29125977 131.63110352 C44.27680786 131.63418015 43.26235596 131.63725677 42.21716309 131.64042664 C41.11819702 131.63324112 40.01923096 131.6260556 38.88696289 131.61865234 C37.20032532 131.61796501 37.20032532 131.61796501 35.47961426 131.61726379 C33.09894762 131.61423871 30.71828301 131.60634484 28.33764648 131.59399414 C24.68344143 131.57575958 21.0294899 131.57348426 17.37524414 131.57373047 C15.06664819 131.5688146 12.75805396 131.56298598 10.44946289 131.55615234 C9.35049683 131.55503952 8.25153076 131.5539267 7.1192627 131.55278015 C6.10481079 131.5464003 5.09035889 131.54002045 4.04516602 131.53344727 C2.70186218 131.52772957 2.70186218 131.52772957 1.3314209 131.52189636 C-0.83178711 131.38818359 -0.83178711 131.38818359 -2.83178711 130.38818359 C-3.85442634 127.3202659 -3.94468108 125.27253549 -3.92602539 122.06225586 C-3.92205246 120.43024986 -3.92205246 120.43024986 -3.91799927 118.76527405 C-3.91275238 117.59024826 -3.90750549 116.41522247 -3.90209961 115.20458984 C-3.91068143 112.72606719 -3.92115644 110.24755049 -3.93334961 107.76904297 C-3.95007758 103.85346856 -3.95671303 99.93922649 -3.93139648 96.02368164 C-3.91049783 92.24981275 -3.93361086 88.47834314 -3.96459961 84.70458984 C-3.94720734 83.53158829 -3.92981506 82.35858673 -3.91189575 81.15003967 C-3.7600654 75.44050726 -3.7600654 75.44050726 -6.44793701 70.73922729 C-8.56245918 69.43858205 -8.56245918 69.43858205 -11.83178711 68.38818359 C-12.20678711 66.13818359 -12.20678711 66.13818359 -11.83178711 63.38818359 C-6.85881414 59.38818359 -6.85881414 59.38818359 -3.83178711 59.38818359 C-3.83622833 58.69327316 -3.84066956 57.99836273 -3.84524536 57.28239441 C-3.88531351 50.73466321 -3.91576712 44.18696621 -3.93541145 37.63914013 C-3.94585031 34.2728013 -3.9600112 30.90656375 -3.98266602 27.5402832 C-4.00686522 23.67054544 -4.01825903 19.80095184 -4.02709961 15.93115234 C-4.04258347 14.11698067 -4.04258347 14.11698067 -4.05838013 12.26615906 C-4.05853119 11.14522354 -4.05868225 10.02428802 -4.05883789 8.86938477 C-4.06327911 7.88121262 -4.06772034 6.89304047 -4.07229614 5.87492371 C-3.78110945 2.86420255 -3.22318801 0.68304264 0 0 Z " fill="#FBF6E6" transform="translate(328.831787109375,183.61181640625)"/>
<path d="M0 0 C1.19496094 -0.00386719 1.19496094 -0.00386719 2.4140625 -0.0078125 C3.66316406 0.00378906 3.66316406 0.00378906 4.9375 0.015625 C5.77023437 0.00789062 6.60296875 0.00015625 7.4609375 -0.0078125 C8.25757813 -0.00523437 9.05421875 -0.00265625 9.875 0 C10.60589844 0.00225586 11.33679688 0.00451172 12.08984375 0.00683594 C13.9375 0.265625 13.9375 0.265625 15.9375 2.265625 C16.17800903 4.67007446 16.17800903 4.67007446 16.16455078 7.72509766 C16.16439972 8.86612946 16.16424866 10.00716125 16.16409302 11.18276978 C16.15377045 12.41925262 16.14344788 13.65573547 16.1328125 14.9296875 C16.1299826 16.19203217 16.12715271 17.45437683 16.12423706 18.75497437 C16.11492131 22.11209444 16.09694835 25.46894412 16.0748291 28.82598877 C16.0543755 32.25115622 16.0452364 35.67635159 16.03515625 39.1015625 C16.01306458 45.82299171 15.97956377 52.54429273 15.9375 59.265625 C16.71480469 59.56210938 17.49210937 59.85859375 18.29296875 60.1640625 C20.88500259 61.24375754 22.77126775 62.50054687 24.9375 64.265625 C24.8125 66.015625 24.8125 66.015625 23.9375 68.265625 C18.71527778 72.265625 18.71527778 72.265625 15.9375 72.265625 C15.94194122 72.96053543 15.94638245 73.65544586 15.95095825 74.37141418 C15.9910264 80.91914538 16.02148001 87.46684238 16.04112434 94.01466846 C16.0515632 97.38100729 16.06572409 100.74724485 16.08837891 104.11352539 C16.11257811 107.98326315 16.12397192 111.85285676 16.1328125 115.72265625 C16.14313507 116.93210403 16.15345764 118.14155182 16.16409302 119.38764954 C16.16424408 120.50858505 16.16439514 121.62952057 16.16455078 122.78442383 C16.168992 123.77259598 16.17343323 124.76076813 16.17800903 125.77888489 C15.9375 128.265625 15.9375 128.265625 13.9375 131.265625 C12.08984375 131.65380859 12.08984375 131.65380859 9.875 131.6640625 C9.07835937 131.66792969 8.28171875 131.67179688 7.4609375 131.67578125 C6.21183594 131.65837891 6.21183594 131.65837891 4.9375 131.640625 C4.10476563 131.65222656 3.27203125 131.66382813 2.4140625 131.67578125 C1.61742187 131.67191406 0.82078125 131.66804687 0 131.6640625 C-1.09634766 131.65898682 -1.09634766 131.65898682 -2.21484375 131.65380859 C-4.0625 131.265625 -4.0625 131.265625 -6.0625 128.265625 C-6.30300903 125.77888489 -6.30300903 125.77888489 -6.28955078 122.78442383 C-6.28932419 121.10302055 -6.28932419 121.10302055 -6.28909302 119.38764954 C-6.27877045 118.17820175 -6.26844788 116.96875397 -6.2578125 115.72265625 C-6.2549826 114.48392258 -6.25215271 113.2451889 -6.24923706 111.96891785 C-6.23993186 108.67924413 -6.22196791 105.38976637 -6.1998291 102.10015869 C-6.1793527 98.74192706 -6.17023152 95.38366672 -6.16015625 92.02539062 C-6.13808271 85.43872527 -6.10459522 78.85219117 -6.0625 72.265625 C-6.83980469 71.96914062 -7.61710937 71.67265625 -8.41796875 71.3671875 C-11.01000259 70.28749246 -12.89626775 69.03070313 -15.0625 67.265625 C-14.9375 65.515625 -14.9375 65.515625 -14.0625 63.265625 C-8.84027778 59.265625 -8.84027778 59.265625 -6.0625 59.265625 C-6.06694122 58.55596588 -6.07138245 57.84630676 -6.07595825 57.11514282 C-6.1159948 50.43465432 -6.14646388 43.75419919 -6.16612434 37.07361794 C-6.1765717 33.63887041 -6.19074805 30.20422183 -6.21337891 26.76953125 C-6.23922063 22.82292862 -6.24896493 18.87636637 -6.2578125 14.9296875 C-6.26813507 13.69320465 -6.27845764 12.4567218 -6.28909302 11.18276978 C-6.28924408 10.04173798 -6.28939514 8.90070618 -6.28955078 7.72509766 C-6.293992 6.71694 -6.29843323 5.70878235 -6.30300903 4.67007446 C-5.87640422 0.40516312 -3.80928126 0.01175704 0 0 Z " fill="#FDF8E9" transform="translate(283.0625,183.734375)"/>
<path d="M0 0 C0.33 0 0.66 0 1 0 C1.11069824 0.71542969 1.22139648 1.43085938 1.33544922 2.16796875 C1.84484529 5.44591389 2.35987842 8.72294994 2.875 12 C3.13603516 13.68802734 3.13603516 13.68802734 3.40234375 15.41015625 C4.51349688 22.46271473 4.51349688 22.46271473 6.1171875 29.4140625 C6.96767935 32.86871523 7.26823433 35.82842353 7.25 39.375 C7.25773437 40.90253906 7.25773437 40.90253906 7.265625 42.4609375 C7 45 7 45 5 47 C2.04147891 47.44360072 -0.94948451 47.32412652 -3.9375 47.3125 C-4.76185547 47.32861328 -5.58621094 47.34472656 -6.43554688 47.36132812 C-7.62567383 47.36229492 -7.62567383 47.36229492 -8.83984375 47.36328125 C-9.56550537 47.36626221 -10.29116699 47.36924316 -11.03881836 47.37231445 C-13.63129407 46.88015393 -14.45051451 46.12283277 -16 44 C-16.66015625 41.6875 -16.66015625 41.6875 -17.0625 39 C-17.21976563 38.030625 -17.37703125 37.06125 -17.5390625 36.0625 C-17.84635417 34.02083333 -18.15364583 31.97916667 -18.4609375 29.9375 C-18.61820313 28.968125 -18.77546875 27.99875 -18.9375 27 C-19.13666016 25.6696875 -19.13666016 25.6696875 -19.33984375 24.3125 C-20.08836792 21.69045083 -20.83277465 20.627471 -23 19 C-25.90082617 18.56134911 -25.90082617 18.56134911 -29.0625 18.6875 C-30.12597656 18.69136719 -31.18945312 18.69523437 -32.28515625 18.69921875 C-35.14663266 18.73000488 -35.14663266 18.73000488 -37 21 C-37.59993335 23.36629275 -37.59993335 23.36629275 -37.96484375 26.12109375 C-38.12533203 27.13880859 -38.28582031 28.15652344 -38.45117188 29.20507812 C-38.77472983 31.35563401 -39.09505634 33.50667861 -39.41210938 35.65820312 C-39.57388672 36.67720703 -39.73566406 37.69621094 -39.90234375 38.74609375 C-40.11105103 40.14879517 -40.11105103 40.14879517 -40.32397461 41.57983398 C-41.08552788 44.30618918 -41.68658229 45.38461051 -44 47 C-46.06884766 47.35644531 -46.06884766 47.35644531 -48.4140625 47.328125 C-49.25710937 47.32296875 -50.10015625 47.3178125 -50.96875 47.3125 C-51.8453125 47.291875 -52.721875 47.27125 -53.625 47.25 C-54.50929687 47.24484375 -55.39359375 47.2396875 -56.3046875 47.234375 C-62.84588509 47.15411491 -62.84588509 47.15411491 -64 46 C-64.76860902 36.8063717 -63.2234104 27.94668066 -61.5625 18.9375 C-61.32918901 17.62059992 -61.09676263 16.3035428 -60.86523438 14.98632812 C-59.17464774 5.52394322 -59.17464774 5.52394322 -58 2 C-53.76305658 2.3716617 -50.72483117 2.66216254 -46.83203125 4.4765625 C-42.42335844 6.44735232 -38.02102851 6.71223129 -33.25 7.0625 C-31.56709602 7.19146305 -29.88474176 7.3278725 -28.203125 7.47265625 C-27.46739258 7.52687744 -26.73166016 7.58109863 -25.97363281 7.63696289 C-24 8 -24 8 -21 10 C-15.16067382 10.7738866 -9.87901123 10.5174267 -5 7 C-3.16029242 4.75035758 -1.60568154 2.43146062 0 0 Z " fill="#FCF6E7" transform="translate(257,268)"/>
<path d="M0 0 C1.66579102 -0.0309375 1.66579102 -0.0309375 3.36523438 -0.0625 C4.42935547 -0.06765625 5.49347656 -0.0728125 6.58984375 -0.078125 C7.56687256 -0.0874707 8.54390137 -0.09681641 9.55053711 -0.10644531 C12.0625 0.25 12.0625 0.25 13.85400391 1.59985352 C15.66442127 4.07189614 15.95309643 6.43122883 16.5 9.4375 C16.61633789 10.06881836 16.73267578 10.70013672 16.85253906 11.35058594 C17.26939769 13.64815559 17.66510407 15.94898497 18.0625 18.25 C18.23990723 19.2414502 18.41731445 20.23290039 18.60009766 21.25439453 C19.18089777 24.5012593 19.74885617 27.7501157 20.3125 31 C20.49997803 32.05985107 20.68745605 33.11970215 20.88061523 34.21166992 C21.04891846 35.2091626 21.21722168 36.20665527 21.390625 37.234375 C21.5443457 38.12866211 21.69806641 39.02294922 21.85644531 39.94433594 C22.0625 42.25 22.0625 42.25 21.0625 45.25 C19.85807292 43.72005208 18.65364583 42.19010417 17.44921875 40.66015625 C15.07247795 38.24324518 12.67196603 38.21028468 9.375 37.875 C5.88414227 37.89400648 4.12106913 38.65289981 1.3125 40.6875 C-3.05064637 43.77446917 -6.93333071 43.72647296 -12.15625 43.9375 C-16.07839824 44.37819081 -17.92571052 45.79301385 -20.9375 48.25 C-21.5975 48.25 -22.2575 48.25 -22.9375 48.25 C-22.35424807 39.18538066 -21.10581745 30.32256662 -19.5625 21.375 C-19.35367188 20.09625 -19.14484375 18.8175 -18.9296875 17.5 C-18.71828125 16.26507813 -18.506875 15.03015625 -18.2890625 13.7578125 C-18.00796631 12.09709717 -18.00796631 12.09709717 -17.72119141 10.40283203 C-16.87744429 7.00839268 -15.69049786 4.27204607 -13.9375 1.25 C-9.82565087 -0.80592456 -4.51915712 0.02090992 0 0 Z " fill="#FCF6E7" transform="translate(228.9375,183.75)"/>
<path d="M0 0 C4.11561946 1.3032795 6.87222177 3.14544127 10.34765625 5.640625 C12.84270021 7.24718989 15.21537386 8.24041786 18 9.25 C22.23847286 10.85178679 24.9932409 12.45253606 27.75 16.1875 C28.99843186 19.85476858 28.95853667 21.58642371 27.6875 25.25 C24.02708422 30.79966264 18.80793455 33.93289794 13.3125 37.5 C12.24128906 38.19738281 11.17007813 38.89476562 10.06640625 39.61328125 C6.19352267 41.45164648 3.98307727 41.86304276 -0.25 41.1875 C-3.19892833 39.2096088 -4.90414078 37.73838565 -5.69677734 34.18408203 C-5.89632524 31.86081101 -5.94701688 29.58163576 -5.9375 27.25 C-5.99586813 21.77686564 -6.28113868 17.3767469 -8.25 12.1875 C-8.79707994 7.73270624 -8.75376064 5.92024275 -6.1875 2.1875 C-3.25 0.1875 -3.25 0.1875 0 0 Z " fill="#FCF7E7" transform="translate(217.25,230.8125)"/>
<path d="M0 0 C0 1.65 0 3.3 0 5 C-0.99 5.33 -1.98 5.66 -3 6 C-2.01 6.33 -1.02 6.66 0 7 C0 8.32 0 9.64 0 11 C-1.98 11.66 -3.96 12.32 -6 13 C-3.03 13.495 -3.03 13.495 0 14 C0 15.32 0 16.64 0 18 C-1.77067416 18.16834933 -3.54154612 18.33461909 -5.3125 18.5 C-6.29863281 18.5928125 -7.28476562 18.685625 -8.30078125 18.78125 C-12.1694151 19.0947717 -15.83199987 18.8628706 -19.6875 18.5 C-21.17830078 18.36078125 -21.17830078 18.36078125 -22.69921875 18.21875 C-23.45847656 18.1465625 -24.21773438 18.074375 -25 18 C-25 16.02 -25 14.04 -25 12 C-23.58461283 11.66127487 -22.16762037 11.32925376 -20.75 11 C-19.56664062 10.7215625 -19.56664062 10.7215625 -18.359375 10.4375 C-16 10 -16 10 -12 10 C-12 9.34 -12 8.68 -12 8 C-16.29 7.67 -20.58 7.34 -25 7 C-25 4.69 -25 2.38 -25 0 C-16.53438902 -1.12298921 -8.48799189 -0.80542989 0 0 Z " fill="#F9F3E3" transform="translate(419,297)"/>
<path d="M0 0 C1.15242188 0.01804687 2.30484375 0.03609375 3.4921875 0.0546875 C4.36101562 0.07789063 5.22984375 0.10109375 6.125 0.125 C5.795 1.775 5.465 3.425 5.125 5.125 C3.805 5.455 2.485 5.785 1.125 6.125 C1.125 6.785 1.125 7.445 1.125 8.125 C3.6 8.62 3.6 8.62 6.125 9.125 C6.125 10.775 6.125 12.425 6.125 14.125 C-0.805 13.63 -0.805 13.63 -7.875 13.125 C-7.875 12.465 -7.875 11.805 -7.875 11.125 C-10.85351562 11.17382812 -10.85351562 11.17382812 -13.83203125 11.22265625 C-15.875 11.125 -15.875 11.125 -18.875 10.125 C-18.875 8.145 -18.875 6.165 -18.875 4.125 C-16.875 3.45833333 -14.875 2.79166667 -12.875 2.125 C-11.9571875 1.774375 -11.039375 1.42375 -10.09375 1.0625 C-6.56511294 0.03474163 -3.66551237 -0.07480637 0 0 Z " fill="#F8F0E0" transform="translate(412.875,266.875)"/>
<path d="M0 0 C2 2 2 2 2.3125 5.4375 C2 9 2 9 0.8125 10.9375 C-1.56041618 12.32851983 -3.29686424 12.21917317 -6 12 C-6 10.68 -6 9.36 -6 8 C-5.01 7.67 -4.02 7.34 -3 7 C-3 6.34 -3 5.68 -3 5 C-4.65 5.33 -6.3 5.66 -8 6 C-8.33 6.99 -8.66 7.98 -9 9 C-13.03779338 11.53535863 -16.23294503 12.74154188 -21 12 C-22.9375 10.4375 -22.9375 10.4375 -24 8 C-23.6875 4.25 -23.6875 4.25 -23 1 C-21.02 0.67 -19.04 0.34 -17 0 C-17 4 -17 4 -18.5 5.75 C-18.995 6.1625 -19.49 6.575 -20 7 C-14.97535733 5.71462629 -12.4917991 3.78278236 -9 0 C-5.88135455 -1.55932272 -3.33704665 -0.65549131 0 0 Z " fill="#F8F0E0" transform="translate(417,185)"/>
<path d="M0 0 C1.32 0 2.64 0 4 0 C4 2.31 4 4.62 4 7 C5.98 7 7.96 7 10 7 C10 5.35 10 3.7 10 2 C11.32 2 12.64 2 14 2 C14.33 3.32 14.66 4.64 15 6 C16.65 6 18.3 6 20 6 C20.33 4.02 20.66 2.04 21 0 C22.32 0 23.64 0 25 0 C25 3.63 25 7.26 25 11 C21.04 11 17.08 11 13 11 C12.67 11.66 12.34 12.32 12 13 C11.67 12.67 11.34 12.34 11 12 C9.15108054 11.76636119 7.29511969 11.58696365 5.4375 11.4375 C3.643125 11.293125 1.84875 11.14875 0 11 C0 7.37 0 3.74 0 0 Z " fill="#FCF6E7" transform="translate(394,213)"/>
<path d="M0 0 C1.32 0 2.64 0 4 0 C4 1.32 4 2.64 4 4 C5.093125 3.835 6.18625 3.67 7.3125 3.5 C11.5922625 2.91969322 15.40853655 3.09727403 19.6875 3.5 C20.68136719 3.5928125 21.67523438 3.685625 22.69921875 3.78125 C23.83810547 3.88953125 23.83810547 3.88953125 25 4 C25 5.32 25 6.64 25 8 C23.22932584 8.16834933 21.45845388 8.33461909 19.6875 8.5 C18.70136719 8.5928125 17.71523438 8.685625 16.69921875 8.78125 C12.31416453 9.13662342 8.3414059 8.65530655 4 8 C4 9.32 4 10.64 4 12 C2.68 12 1.36 12 0 12 C0 8.04 0 4.08 0 0 Z " fill="#FCF7E7" transform="translate(394,240)"/>
<path d="M0 0 C3.0625 0.3125 3.0625 0.3125 4.9375 1.4375 C6.5307099 4.09284983 6.26464032 6.28039518 6.0625 9.3125 C2.94651212 11.15901134 0.68004103 11.69329379 -2.9375 11.3125 C-4.9375 9.3125 -4.9375 9.3125 -5.1875 5.8125 C-4.87458101 1.43163414 -4.40975115 0.46912246 0 0 Z " fill="#FBF4E5" transform="translate(243.9375,264.6875)"/>
<path d="M0 0 C3.125 0.375 3.125 0.375 5.5625 2.0625 C7.125 4.375 7.125 4.375 6.9375 7.0625 C6.125 9.375 6.125 9.375 5.125 10.375 C-0.61111111 10.64814815 -0.61111111 10.64814815 -2.875 10.375 C-4.875 8.375 -4.875 8.375 -5.125 5.375 C-4.78777617 1.328314 -4.02388097 0.52485404 0 0 Z " fill="#FBF5E5" transform="translate(254.875,250.625)"/>
<path d="M0 0 C1.051875 0.14695313 1.051875 0.14695313 2.125 0.296875 C3.176875 0.42835938 3.176875 0.42835938 4.25 0.5625 C6.125 1.046875 6.125 1.046875 8.125 3.046875 C7.875 6.109375 7.875 6.109375 7.125 9.046875 C4.32629973 10.44622513 2.22001208 10.29952905 -0.875 10.046875 C-2.75 8.859375 -2.75 8.859375 -3.875 7.046875 C-4.1875 4.484375 -4.1875 4.484375 -3.875 2.046875 C-1.875 0.046875 -1.875 0.046875 0 0 Z " fill="#F9F3E3" transform="translate(233.875,225.953125)"/>
<path d="M0 0 C3.42555325 0.18684836 6.05928088 0.41205055 9 2.25 C10 4 10 4 9.75 6.625 C9 9 9 9 8 10 C1.75478261 10.4626087 1.75478261 10.4626087 -0.9375 8.8125 C-2.36405327 6.37896796 -2.35571424 4.77457104 -2 2 C-1.34 1.34 -0.68 0.68 0 0 Z " fill="#FAF3E4" transform="translate(249,234)"/>
</svg>
